<svg xmlns="http://www.w3.org/2000/svg" id="Layer_1" data-name="Layer 1" viewBox="0 0 514.98 143.73"><defs><style>.cls-1{fill:#2c2f31;}.cls-2{fill:#1ba249;}</style></defs><title>Artboard 3</title><path class="cls-1" d="M196.55,109.22c3-1.4,4.45-3.24,4.45-5.54,0-3.29-.94-5.65-2.8-7.08s-5-2.14-9.4-2.14h-15v16a91.58,91.58,0,0,0,12.93.84,22.6,22.6,0,0,0,9.77-2.1m-22.7-27h15a11.3,11.3,0,0,0,7.11-2.05q2.61-2.05,2.61-4.47a7.4,7.4,0,0,0-1.93-5.31q-1.92-2.06-7.7-2.05h-15Zm32.42,6.8a21,21,0,0,1,2.61,1.81,9.15,9.15,0,0,1,2.53,2.8,20.45,20.45,0,0,1,1.51,4,22,22,0,0,1,.73,6,16.7,16.7,0,0,1-2.57,9.17,17.94,17.94,0,0,1-6.64,6.29,37.36,37.36,0,0,1-8.63,3.4,36,36,0,0,1-9,1.16,106.86,106.86,0,0,1-12.2-.74c-4.34-.5-7.73-1-10.18-1.49l-3.67-.65V56.09h28.16a31.71,31.71,0,0,1,11,1.67,15.43,15.43,0,0,1,6.92,4.66,19.68,19.68,0,0,1,3.44,6.24,22.65,22.65,0,0,1,1.06,7.08,11.76,11.76,0,0,1-1.47,5.87,12.83,12.83,0,0,1-2.8,3.67,29.15,29.15,0,0,1-3.53,2.38c1.29.62,2.22,1.09,2.8,1.4"></path><path class="cls-1" d="M278.41,102.84a20,20,0,0,1-2,9.08,17.34,17.34,0,0,1-4.81,6.15,23.92,23.92,0,0,1-6.65,3.54,35,35,0,0,1-6.93,1.77,45.92,45.92,0,0,1-6.14.42,39.73,39.73,0,0,1-7.71-.79,40.59,40.59,0,0,1-8.48-2.84,17.18,17.18,0,0,1-7.43-6.52,19.56,19.56,0,0,1-2.89-10.81V56.09h13.12v46.75c0,2.48,1.27,4.52,3.8,6.1a17.78,17.78,0,0,0,9.59,2.38,17.43,17.43,0,0,0,9.63-2.38c2.44-1.58,3.67-3.62,3.67-6.1V56.09h13.2Z"></path><polygon class="cls-1" points="350.21 56.09 350.21 122.96 338.84 122.96 306 78.44 306 122.96 293.62 122.96 293.62 56.09 305.18 56.09 337.92 100.33 337.92 56.09 350.21 56.09"></polygon><path class="cls-1" d="M379,110.57a39.94,39.94,0,0,0,9.08.75Q412,111.32,412,90a34.93,34.93,0,0,0-1.52-11.09,13.33,13.33,0,0,0-4.45-6.66,17.53,17.53,0,0,0-6.28-3,32.85,32.85,0,0,0-7.93-.84H379Zm38.34-45.82q8,8.66,8,25.24,0,15.93-9.81,24.82t-27.24,8.89a69.27,69.27,0,0,1-12.38-1,38.61,38.61,0,0,1-7.89-2.05l-2.2-1V56.09h26.32q17.25,0,25.23,8.66"></path><path class="cls-1" d="M469.94,91.85,462.6,73.6l-7.16,18.25Zm4.58,12.3H450.58L443.34,123H429.49l26.23-66.87h13.76L495.71,123H482Z"></path><polygon class="cls-2" points="106.44 79.53 83.34 79.53 83.34 56.09 62.85 56.09 62.85 79.53 39.76 79.53 39.76 100.35 62.85 100.35 62.85 123.8 83.34 123.8 83.34 100.35 106.44 100.35 106.44 79.53"></polygon><path class="cls-2" d="M49.54,53.43a31.11,31.11,0,0,1,47.15,0,38.74,38.74,0,0,1,9.77,26.1H127a64.73,64.73,0,0,0-4.24-23.2,60.06,60.06,0,0,0-11.53-18.94A53.72,53.72,0,0,0,94.07,24.62a49.18,49.18,0,0,0-41.92,0A53.68,53.68,0,0,0,35,37.39,60.06,60.06,0,0,0,23.51,56.33a64.73,64.73,0,0,0-4.24,23.2h20.5a38.74,38.74,0,0,1,9.77-26.1"></path></svg>